<svg width="276" height="191" viewBox="0 0 276 191" fill="none" xmlns="http://www.w3.org/2000/svg">
<g clip-path="url(#clip0_597_2447)">
<path d="M27.6631 176.564C27.7818 180.995 28.524 185.387 29.8679 189.611C29.8976 189.709 29.9307 189.806 29.9629 189.904H38.19C38.1813 189.816 38.1724 189.718 38.1637 189.611C37.6152 183.304 40.749 145.374 44.5305 138.809C44.1991 139.342 27.0252 156.523 27.6631 176.564Z" fill="white"/>
<path d="M28.2803 189.611C28.3492 189.709 28.4207 189.807 28.494 189.904H34.6661C34.6193 189.821 34.5651 189.723 34.5023 189.611C33.4827 187.771 30.4648 182.268 27.6636 176.564C24.6544 170.434 21.8913 164.071 22.124 161.768C22.0519 162.287 19.9687 178.121 28.2803 189.611Z" fill="white"/>
<path d="M128.323 183.126C128.383 185.378 128.76 187.609 129.443 189.755C129.458 189.805 129.475 189.854 129.491 189.904H133.671C133.667 189.859 133.662 189.81 133.658 189.755C133.379 186.551 134.971 167.28 136.892 163.945C136.724 164.215 127.999 172.944 128.323 183.126Z" fill="white"/>
<path d="M128.636 189.755C128.671 189.805 128.708 189.855 128.745 189.904H131.881C131.857 189.862 131.829 189.812 131.797 189.755C131.279 188.82 129.746 186.025 128.323 183.126C126.794 180.012 125.39 176.779 125.508 175.609C125.472 175.873 124.413 183.917 128.636 189.755Z" fill="white"/>
<path d="M103.577 54.781L92.9375 62.35L99.5578 63.0592L108.779 55.2548L103.577 54.781Z" fill="#3F3D56"/>
<path d="M61.9514 184.016L68.3506 184.016L71.3949 159.329L61.9502 159.329L61.9514 184.016Z" fill="#9F616A"/>
<path d="M60.3188 181.926L72.9213 181.926H72.9218C75.0517 181.926 77.0944 182.772 78.6005 184.279C80.1066 185.785 80.9528 187.828 80.953 189.958V190.219L60.3192 190.22L60.3188 181.926Z" fill="#2F2E41"/>
<path d="M57.9282 95.8405C57.9282 95.8405 55.1548 98.9759 59.7471 111.198L58.9382 178.217L73.8204 177.927L77.0916 145.236L83.0476 97.5299L57.9282 95.8405Z" fill="#2F2E41"/>
<path d="M43.0697 85.2609C42.1904 85.2585 41.3467 84.9135 40.7176 84.2992C40.0885 83.6848 39.7235 82.8494 39.7001 81.9703L39.0017 55.6465L50.9517 32.9716C51.2231 32.461 51.6201 32.028 52.1053 31.7136C52.5905 31.3991 53.1479 31.2136 53.7247 31.1746L62.8317 30.5898L62.0453 83.6515L43.3659 85.2482C43.2667 85.2568 43.168 85.261 43.0697 85.2609Z" fill="#313874"/>
<path d="M88.1518 105.106L87.9889 105.081C68.9504 102.177 54.5837 99.3933 54.4408 99.3655L54.2623 99.3308L59.2531 87.1901C59.2137 85.9214 58.1333 50.2964 60.2014 40.061C62.2035 30.1526 71.6405 28.5287 72.7159 28.376L73.7957 24.7976L87.4376 31.8974L89.8169 40.0874L90.3002 62.534L88.1518 105.106Z" fill="#3F3D56"/>
<path d="M69.4043 71.1237C60.6151 71.1237 53.4645 61.5658 53.4645 49.8174C53.4645 38.0691 60.6151 28.5111 69.4043 28.5111C78.1936 28.5111 85.3442 38.0691 85.3442 49.8174C85.3442 61.5658 78.1936 71.1237 69.4043 71.1237ZM69.4043 30.597C61.7651 30.597 55.5501 39.2193 55.5501 49.8174C55.5501 60.4156 61.7651 69.0378 69.4043 69.0378C77.0436 69.0378 83.2586 60.4156 83.2586 49.8174C83.2586 39.2193 77.0436 30.597 69.4043 30.597Z" fill="#313874"/>
<path d="M96.3681 58.9061C95.7538 58.906 95.1461 59.033 94.5833 59.2792C94.0204 59.5254 93.5146 59.8855 93.0976 60.3367H70.1678L61.7687 62.1248L63.1477 72.7627L93.0256 66.336C93.5203 66.8947 94.147 67.3206 94.8486 67.5748C95.5502 67.829 96.3042 67.9034 97.0419 67.7911C97.7796 67.6789 98.4774 67.3836 99.0717 66.9323C99.666 66.481 100.138 65.8879 100.444 65.2074C100.75 64.5268 100.881 63.7803 100.824 63.0362C100.768 62.292 100.526 61.5738 100.121 60.9472C99.7155 60.3206 99.1598 59.8055 98.5042 59.449C97.8487 59.0924 97.1143 58.9058 96.3681 58.9061Z" fill="#9F616A"/>
<path d="M94.6846 23.2902C99.0002 18.9738 99.0002 11.9756 94.6846 7.65924C90.3689 3.34287 83.3718 3.34287 79.0561 7.65925C74.7405 11.9756 74.7405 18.9738 79.0561 23.2902C83.3718 27.6066 90.3689 27.6066 94.6846 23.2902Z" fill="#9F616A"/>
<path d="M76.4767 6.63857L75.941 5.5601L78.6367 4.22052C78.6367 4.22052 81.6105 -0.619004 86.9918 0.741009C92.373 2.10102 94.7941 2.91496 94.7941 2.91496L97.483 4.26815L96.1335 5.61114L98.5545 6.4251L96.9371 7.22884L98.819 8.31071L97.8059 13.8567C97.8059 13.8567 96.1233 9.65029 92.8884 11.2578C89.6536 12.8653 83.7365 10.4268 83.7365 10.4268L78.5959 20.3771C78.5959 20.3771 77.5354 16.8891 75.6446 17.8191C75.6446 17.8191 70.814 10.1249 76.4767 6.63857Z" fill="#2F2E41"/>
<path d="M172.5 74.6841L172.027 65.8238L167.26 61.95L164.498 70.1547L149.052 90.7587C148.322 90.8758 147.641 91.1995 147.089 91.6918C146.537 92.184 146.137 92.8241 145.937 93.5364C145.738 94.2486 145.746 95.0031 145.962 95.7107C146.177 96.4182 146.591 97.0492 147.154 97.529C147.717 98.0087 148.406 98.3172 149.138 98.4178C149.871 98.5184 150.617 98.407 151.288 98.0968C151.96 97.7865 152.528 97.2904 152.927 96.6672C153.325 96.0439 153.536 95.3196 153.536 94.5799C153.536 94.5278 153.53 94.4771 153.528 94.4255L172.5 74.6841Z" fill="#FFB7B7"/>
<path d="M181.679 186.353L178.027 186.352L176.289 172.261L181.68 172.261L181.679 186.353Z" fill="#FFB7B7"/>
<path d="M182.611 189.894L170.833 189.893V189.744C170.833 188.529 171.316 187.362 172.176 186.503C173.035 185.643 174.201 185.16 175.417 185.16L182.611 185.16L182.611 189.894Z" fill="#2F2E41"/>
<path d="M198.662 186.353L195.009 186.352L193.271 172.261L198.662 172.261L198.662 186.353Z" fill="#FFB7B7"/>
<path d="M199.593 189.894L187.816 189.893V189.744C187.816 188.529 188.299 187.362 189.158 186.503C190.018 185.643 191.184 185.16 192.4 185.16L199.594 185.16L199.593 189.894Z" fill="#2F2E41"/>
<path d="M194.801 37.6701C196.348 31.2838 197.658 24.0807 194.741 18.1988C192.718 14.1177 185.232 12.7433 180.94 14.2136C176.649 15.6839 173.546 19.6728 172.182 24.0221C170.817 28.3713 170.976 33.0579 171.57 37.5792C179.463 37.4276 187.355 37.276 194.801 37.6701Z" fill="#2F2E41"/>
<path d="M185.897 36.5404C190.357 34.1019 191.996 28.509 189.558 24.0483C187.12 19.5876 181.528 17.9482 177.068 20.3867C172.608 22.8251 170.969 28.418 173.407 32.8787C175.845 37.3395 181.437 38.9788 185.897 36.5404Z" fill="#FFB8B8"/>
<path d="M192.733 26.5674C192.763 25.0181 192.48 23.4788 191.903 22.0409C191.326 20.603 190.465 19.2958 189.373 18.197C188.281 17.0983 186.979 16.2303 185.544 15.6447C184.11 15.0592 182.573 14.7679 181.023 14.7884C179.474 14.8088 177.945 15.1404 176.527 15.7636C175.108 16.3868 173.83 17.2888 172.767 18.416C171.703 19.5432 170.878 20.8726 170.339 22.3253C169.8 23.7779 169.558 25.3241 169.628 26.872C177.505 26.8887 185.383 26.9055 192.733 26.5674Z" fill="#2F2E41"/>
<path d="M166.703 83.9208C166.703 83.9208 165.206 105.678 166.018 112.314C166.831 118.951 175.681 176.973 175.681 176.973L182.356 176.961L184.338 108.586L192.231 177.626L199.134 176.908L203.05 109.374C203.05 109.374 202.436 84.0909 197.445 81.5557L166.703 83.9208Z" fill="#2F2E41"/>
<path d="M177.174 105.488C172.271 105.486 167.439 104.316 163.078 102.074L162.983 102.025L166.672 77.5386L166.433 48.3553C166.426 47.5543 166.58 46.76 166.883 46.0188C167.187 45.2776 167.635 44.6042 168.202 44.0381C168.768 43.472 169.442 43.0244 170.183 42.7214C170.925 42.4185 171.719 42.2662 172.52 42.2736L192.318 42.4553C193.195 42.4633 194.06 42.6517 194.861 43.0087C195.662 43.3657 196.38 43.8836 196.972 44.5303C197.564 45.177 198.017 45.9386 198.302 46.7678C198.587 47.5969 198.698 48.4758 198.629 49.3498L196.776 72.7451L202.903 91.7342L201.838 93.1502C198.967 96.9807 195.244 100.09 190.963 102.231C186.681 104.373 181.961 105.488 177.174 105.488Z" fill="#3F3D56"/>
<path d="M164.444 67.4505L166.518 46.2776L167.185 45.3286C167.642 44.6787 168.223 44.1254 168.894 43.7005C169.565 43.2755 170.313 42.9874 171.096 42.8525C171.879 42.7176 172.68 42.7387 173.455 42.9145C174.23 43.0903 174.962 43.4174 175.61 43.877L176.181 44.2825L175.617 65.7394L164.444 67.4505Z" fill="#3F3D56"/>
<path d="M249.454 170.893C254.817 169.411 257.106 177.557 251.756 179.086C246.393 180.568 244.104 172.422 249.454 170.893Z" fill="#3F3D56"/>
<path d="M219.717 181.377C225.08 179.895 227.369 188.041 222.019 189.57C216.656 191.052 214.368 182.906 219.717 181.377Z" fill="#3F3D56"/>
<path d="M207.682 95.4641L207.765 95.4408L221.58 132.952L223.401 132.44L209.487 94.6597C209.457 94.0774 209.229 93.5229 208.84 93.0883C208.452 92.6537 207.926 92.3652 207.351 92.2705C200.442 91.1779 197.642 97.3116 197.642 97.3116L197.669 97.3524L211.793 135.704L213.614 135.192L199.906 97.9688C204.079 93.8405 207.682 95.4641 207.682 95.4641Z" fill="#3F3D56"/>
<path d="M223.515 183.487C221.544 183.47 219.63 182.824 218.051 181.643C216.473 180.462 215.313 178.808 214.74 176.921C212.104 168.29 205.883 147.61 205.058 141.997C203.985 134.69 210.033 132.612 210.167 132.567C210.33 132.512 212.761 131.832 216.127 130.89C221.847 129.289 230.491 126.869 230.809 126.726C232.148 126.26 233.569 126.076 234.983 126.185C236.397 126.295 237.773 126.695 239.025 127.361C240.316 128.04 241.455 128.974 242.373 130.107C243.291 131.24 243.969 132.547 244.366 133.951L253.264 165.613C253.813 167.554 253.659 169.627 252.83 171.465C252 173.304 250.547 174.79 248.729 175.662C241.863 178.961 231.793 183.362 223.65 183.486C223.605 183.487 223.56 183.487 223.515 183.487Z" fill="#313874"/>
<path d="M206.213 94.1665L201.74 68.0334L201.241 59.2137L194.009 61.5828L200.108 95.8024C199.862 96.4683 199.804 97.1892 199.94 97.8861C200.075 98.583 200.4 99.2291 200.879 99.7538C201.357 100.279 201.97 100.662 202.651 100.861C203.333 101.061 204.056 101.069 204.741 100.885C205.427 100.702 206.049 100.333 206.539 99.8193C207.03 99.3058 207.369 98.6673 207.521 97.9738C207.673 97.2802 207.632 96.5582 207.401 95.8867C207.17 95.2152 206.759 94.6201 206.213 94.1665Z" fill="#FFB7B7"/>
<path d="M202.963 66.3943L191.677 65.7803L189.025 44.4804L189.283 44.2565C189.918 43.7051 190.657 43.2847 191.455 43.0194C192.253 42.7541 193.096 42.6491 193.935 42.7105C194.775 42.7719 195.593 42.9984 196.345 43.3771C197.096 43.7558 197.765 44.2792 198.314 44.9172L198.836 45.5245L198.843 45.5629L202.963 66.3943Z" fill="#3F3D56"/>
<path d="M248.926 170.439L237.39 131.387L210.263 139.054L210.101 138.481L237.795 130.653L237.878 130.935L249.498 170.27L248.926 170.439Z" fill="#3F3D56"/>
<path d="M43.9307 82.4611L42.7023 55.6715L55.2849 31.0712L55.8153 31.3426L43.305 55.802L44.526 82.4337L43.9307 82.4611Z" fill="#3F3D56"/>
<path d="M275.202 190.5H0.797942C0.718922 190.5 0.64314 190.469 0.587265 190.413C0.53139 190.357 0.5 190.281 0.5 190.202C0.5 190.123 0.53139 190.047 0.587265 189.991C0.64314 189.935 0.718922 189.904 0.797942 189.904H275.202C275.281 189.904 275.357 189.935 275.413 189.991C275.469 190.047 275.5 190.123 275.5 190.202C275.5 190.281 275.469 190.357 275.413 190.413C275.357 190.469 275.281 190.5 275.202 190.5Z" fill="black"/>
<path d="M63.2945 74.7568L60.6723 66.9555L60.038 40.9503L61.1552 37.2606C61.5574 35.9327 62.2235 34.6995 63.1135 33.6352C64.0036 32.5709 65.0993 31.6972 66.3351 31.0665C67.5709 30.4359 68.9212 30.0613 70.3052 29.9651C71.6892 29.8689 73.0784 30.0532 74.3894 30.5069C75.7005 30.9605 76.9065 31.6743 77.9352 32.6053C78.9639 33.5363 79.794 34.6655 80.3759 35.9251C80.9578 37.1847 81.2795 38.5488 81.3216 39.9357C81.3637 41.3227 81.1255 42.7038 80.6211 43.9964L74.6326 59.3447L74.937 59.9356L87.9112 59.8305L92.5197 68.1274L63.2945 74.7568Z" fill="#3F3D56"/>
<path d="M145.945 130.273L145.936 130.274L131.556 133.154L119.186 138.136C119.026 138.201 118.855 138.233 118.682 138.231C118.51 138.229 118.339 138.194 118.181 138.126C118.022 138.059 117.878 137.961 117.758 137.837C117.637 137.714 117.542 137.569 117.477 137.409C117.462 137.371 117.449 137.333 117.437 137.294L108.4 107.029C108.305 106.716 108.331 106.378 108.474 106.083C108.616 105.788 108.864 105.557 109.168 105.436L121.764 100.362L121.774 100.36L136.154 97.4808L148.524 92.4984C148.847 92.3683 149.208 92.3718 149.529 92.5083C149.849 92.6447 150.102 92.9028 150.232 93.2259C150.247 93.2635 150.26 93.3017 150.272 93.3406L159.309 123.605C159.404 123.919 159.378 124.256 159.236 124.552C159.094 124.847 158.846 125.078 158.541 125.199L145.945 130.273Z" fill="#C2C2C2"/>
<path d="M130.514 109.943C127.217 108.779 123.808 107.76 120.385 106.913L120.213 106.871L121.951 112.692L130.807 110.047L130.514 109.943ZM122.087 112.441L120.508 107.152C123.766 107.963 127.009 108.931 130.154 110.031L122.087 112.441ZM147.794 117.813C146.259 116.945 144.702 116.113 143.122 115.319C142.687 115.099 142.25 114.883 141.812 114.67C139.138 113.369 136.423 112.183 133.668 111.112L133.635 111.099L122.471 114.434L125.52 124.644L148 117.93L147.794 117.813ZM125.656 124.393L122.723 114.57L133.627 111.313C136.284 112.346 138.911 113.491 141.508 114.747C141.959 114.965 142.408 115.187 142.856 115.411C144.419 116.194 145.963 117.014 147.487 117.872L125.656 124.393ZM147.794 117.813C146.259 116.945 144.702 116.113 143.122 115.319C142.687 115.099 142.25 114.883 141.812 114.67C139.138 113.369 136.423 112.183 133.668 111.112L133.635 111.099L122.471 114.434L125.52 124.644L148 117.93L147.794 117.813ZM125.656 124.393L122.723 114.57L133.627 111.313C136.284 112.346 138.911 113.491 141.508 114.747C141.959 114.965 142.408 115.187 142.856 115.411C144.419 116.194 145.963 117.014 147.487 117.872L125.656 124.393ZM130.514 109.943C127.217 108.779 123.808 107.76 120.385 106.913L120.213 106.871L121.951 112.692L130.807 110.047L130.514 109.943ZM122.087 112.441L120.508 107.152C123.766 107.963 127.009 108.931 130.154 110.031L122.087 112.441ZM130.514 109.943C127.217 108.779 123.808 107.76 120.385 106.913L120.213 106.871L121.951 112.692L130.807 110.047L130.514 109.943ZM122.087 112.441L120.508 107.152C123.766 107.963 127.009 108.931 130.154 110.031L122.087 112.441ZM147.794 117.813C146.259 116.945 144.702 116.113 143.122 115.319C142.687 115.099 142.25 114.883 141.812 114.67C139.138 113.369 136.423 112.183 133.668 111.112L133.635 111.099L122.471 114.434L125.52 124.644L148 117.93L147.794 117.813ZM125.656 124.393L122.723 114.57L133.627 111.313C136.284 112.346 138.911 113.491 141.508 114.747C141.959 114.965 142.408 115.187 142.856 115.411C144.419 116.194 145.963 117.014 147.487 117.872L125.656 124.393ZM116.461 129.248L116.519 129.441L124.163 127.158L125.001 129.965L117.357 132.248L117.415 132.441L125.252 130.1L124.298 126.907L116.461 129.248ZM127.514 131.322L128.1 133.283L128.288 133.208L127.765 131.458L157.569 122.556L157.511 122.362L127.514 131.322ZM156.095 117.62L156.037 117.426L126.04 126.386L126.994 129.58L156.991 120.62L156.933 120.427L127.13 129.329L126.291 126.522L156.095 117.62ZM133.817 108.937C129.249 107.181 124.556 105.768 119.778 104.71L119.193 102.75L119.005 102.826L119.595 104.801L119.793 104.92C124.552 105.978 129.226 107.387 133.777 109.137L133.809 109.15L151.948 103.732L151.89 103.538L133.817 108.937ZM119.958 113.076L112.314 115.359L112.372 115.553L120.209 113.212L117.312 103.508L117.123 103.584L119.958 113.076ZM152.468 105.474L136.522 110.237L136.782 110.346C139.227 111.375 141.667 112.513 144.1 113.76C144.446 113.937 144.791 114.116 145.136 114.298C146.854 115.2 148.558 116.153 150.249 117.155L150.437 117.202L155.517 115.684L155.459 115.491L150.391 117.005C148.718 116.012 147.03 115.067 145.326 114.169C144.985 113.99 144.644 113.812 144.302 113.637C141.92 112.413 139.526 111.291 137.119 110.27L152.526 105.668L152.468 105.474ZM117.935 134.183L117.993 134.377L125.636 132.094L126.218 134.041L126.406 133.965L125.772 131.842L117.935 134.183ZM112.892 117.295L112.95 117.489L120.594 115.206L123.527 125.029L115.883 127.312L115.941 127.505L123.778 125.165L120.729 114.954L112.892 117.295ZM130.514 109.943C127.217 108.779 123.808 107.76 120.385 106.913L120.213 106.871L121.951 112.692L130.807 110.047L130.514 109.943ZM122.087 112.441L120.508 107.152C123.766 107.963 127.009 108.931 130.154 110.031L122.087 112.441ZM147.794 117.813C146.259 116.945 144.702 116.113 143.122 115.319C142.687 115.099 142.25 114.883 141.812 114.67C139.138 113.369 136.423 112.183 133.668 111.112L133.635 111.099L122.471 114.434L125.52 124.644L148 117.93L147.794 117.813ZM125.656 124.393L122.723 114.57L133.627 111.313C136.284 112.346 138.911 113.491 141.508 114.747C141.959 114.965 142.408 115.187 142.856 115.411C144.419 116.194 145.963 117.014 147.487 117.872L125.656 124.393ZM130.514 109.943C127.217 108.779 123.808 107.76 120.385 106.913L120.213 106.871L121.951 112.692L130.807 110.047L130.514 109.943ZM122.087 112.441L120.508 107.152C123.766 107.963 127.009 108.931 130.154 110.031L122.087 112.441ZM147.794 117.813C146.259 116.945 144.702 116.113 143.122 115.319C142.687 115.099 142.25 114.883 141.812 114.67C139.138 113.369 136.423 112.183 133.668 111.112L133.635 111.099L122.471 114.434L125.52 124.644L148 117.93L147.794 117.813ZM125.656 124.393L122.723 114.57L133.627 111.313C136.284 112.346 138.911 113.491 141.508 114.747C141.959 114.965 142.408 115.187 142.856 115.411C144.419 116.194 145.963 117.014 147.487 117.872L125.656 124.393Z" fill="white"/>
<path d="M133.082 110.855C133.814 113.306 131.007 120.092 131.007 120.092C131.007 120.092 124.939 115.957 124.207 113.506C123.856 112.329 123.986 111.06 124.57 109.979C125.153 108.899 126.142 108.094 127.319 107.742C128.496 107.391 129.764 107.521 130.845 108.105C131.926 108.689 132.73 109.678 133.082 110.855Z" fill="#F8931D"/>
<path d="M130.615 111.382C130.735 111.783 130.733 112.211 130.61 112.611C130.487 113.011 130.248 113.366 129.923 113.63C129.598 113.894 129.202 114.056 128.785 114.096C128.368 114.135 127.949 114.05 127.581 113.851C127.212 113.652 126.911 113.348 126.716 112.978C126.52 112.607 126.438 112.187 126.481 111.771C126.524 111.354 126.689 110.96 126.956 110.637C127.223 110.315 127.58 110.078 127.981 109.959C128.247 109.879 128.527 109.853 128.804 109.881C129.08 109.909 129.348 109.992 129.593 110.124C129.838 110.256 130.054 110.435 130.229 110.651C130.405 110.867 130.536 111.115 130.615 111.382Z" fill="white"/>
<path d="M131.606 123.347C132.295 123.347 132.854 122.788 132.854 122.099C132.854 121.409 132.295 120.85 131.606 120.85C130.917 120.85 130.358 121.409 130.358 122.099C130.358 122.788 130.917 123.347 131.606 123.347Z" fill="#F8931D"/>
<path d="M145.228 105.682L136.552 108.274C136.541 108.277 136.53 108.279 136.519 108.281L138.499 99.9466C138.511 99.8948 138.536 99.8471 138.573 99.8084C138.609 99.7697 138.655 99.7412 138.706 99.726C138.757 99.7109 138.811 99.7094 138.862 99.7219C138.914 99.7344 138.961 99.7604 138.999 99.7972L143.178 103.745L143.378 103.934L145.228 105.682Z" fill="white"/>
<path opacity="0.2" d="M145.227 105.682L142.265 106.567L143.089 104.02L143.148 103.837L143.178 103.745L143.378 103.934L145.227 105.682Z" fill="black"/>
<path d="M150.058 104.239L142.554 106.481L143.378 103.934L143.437 103.751L144.51 100.432C144.531 100.38 144.562 100.332 144.603 100.293C144.643 100.254 144.691 100.224 144.744 100.205C144.796 100.186 144.853 100.178 144.909 100.182C144.964 100.186 145.019 100.201 145.069 100.228C145.082 100.235 145.094 100.244 145.106 100.253L150.058 104.239Z" fill="white"/>
</g>
<defs>
<clipPath id="clip0_597_2447">
<rect width="275" height="190" fill="white" transform="translate(0.5 0.5)"/>
</clipPath>
</defs>
</svg>
