<svg width="278" height="133" viewBox="0 0 278 133" fill="none" xmlns="http://www.w3.org/2000/svg">
<g clip-path="url(#clip0_597_2658)">
<path d="M245.983 132.306L246.93 114.736C246.93 114.736 278 108.312 278 89.7971C278 71.2819 227.227 69.0147 222.112 77.5166C222.061 77.6016 222.01 77.6866 221.959 77.7716C215.641 88.3975 219.208 102.193 229.96 108.329C233.636 110.427 238.019 112.223 243.141 113.224L242.78 131.89" fill="#313874"/>
<path d="M217.166 36.3775C226.853 36.3775 234.706 28.546 234.706 18.8854C234.706 9.22479 226.853 1.39331 217.166 1.39331C207.479 1.39331 199.625 9.22479 199.625 18.8854C199.625 28.546 207.479 36.3775 217.166 36.3775Z" fill="#F8931D"/>
<path d="M191.289 128.141L171.507 126.884L170.44 38.1736C170.414 36.0204 171.275 33.912 172.802 32.3893L193.995 11.2542C196.962 8.29587 201.631 8.08207 204.857 10.7581L227.856 29.8379C229.733 31.3944 230.792 33.683 230.764 36.1168L229.973 102.831L239.97 116.677L239.991 116.706L241.685 131.345L191.289 128.141Z" fill="white"/>
<path d="M194.614 31.9094V27.7958C194.614 26.7101 195.5 25.8267 196.589 25.8267H202.384C203.473 25.8267 204.359 26.71 204.359 27.7958V31.9094C204.359 32.9952 203.473 33.8786 202.384 33.8786H196.589C195.5 33.8786 194.614 32.9952 194.614 31.9094Z" fill="#313874"/>
<path d="M182.364 63.8395V48.6198C182.364 47.534 183.249 46.6506 184.338 46.6506H192.918C194.007 46.6506 194.892 47.534 194.892 48.6198V63.8395C194.892 64.9253 194.007 65.8086 192.918 65.8086H184.338C183.249 65.8086 182.364 64.9253 182.364 63.8395Z" fill="#3F3D56"/>
<path d="M201.757 99.4654C200.72 99.4288 199.884 98.5896 199.853 97.5552L199.419 82.8448C199.401 82.2168 199.674 81.6333 200.167 81.2431C200.661 80.8532 201.293 80.7231 201.902 80.8841L202.336 80.9997C203.199 81.2293 203.802 82.0116 203.802 82.9023V97.4975C203.802 98.0365 203.587 98.5397 203.199 98.9142C202.827 99.2721 202.343 99.4665 201.829 99.4665C201.805 99.4665 201.781 99.4662 201.757 99.4654Z" fill="#3F3D56"/>
<path d="M175.449 98.9142C175.06 98.5397 174.846 98.0365 174.846 97.4975V82.9023C174.846 82.0116 175.449 81.2293 176.312 80.9996L176.746 80.8841C177.355 80.7231 177.987 80.8532 178.481 81.2431C178.974 81.633 179.247 82.2168 179.229 82.8448L178.795 97.5552C178.764 98.5896 177.928 99.4288 176.891 99.4654C176.867 99.4662 176.843 99.4665 176.819 99.4665C176.305 99.4665 175.821 99.2718 175.449 98.9142Z" fill="#3F3D56"/>
<path d="M183.756 97.4355V82.1717C183.756 81.0942 184.602 80.2295 185.682 80.2029L193.48 80.0134C194.561 79.9985 195.471 80.8444 195.502 81.9249L195.951 97.3783C195.967 97.9149 195.769 98.4225 195.394 98.8075C195.019 99.1925 194.516 99.4046 193.978 99.4046H185.73C184.641 99.4046 183.756 98.5212 183.756 97.4355Z" fill="#3F3D56"/>
<path d="M229.847 107.866L235.959 118.701L236.661 130.888L241.527 131.196L239.857 116.758L229.834 102.875C228.969 104.428 228.974 106.317 229.847 107.866Z" fill="#313874"/>
<path d="M236.465 127.4L216.628 127.67L216.632 127.948L236.469 127.677L236.465 127.4Z" fill="#3F3D56"/>
<path d="M235.262 124.949L216.453 125.096L216.456 125.374L235.264 125.227L235.262 124.949Z" fill="#3F3D56"/>
<path d="M234.286 122.445L216.294 122.796L216.3 123.073L234.291 122.723L234.286 122.445Z" fill="#3F3D56"/>
<path d="M233.727 119.955L216.45 120.527L216.459 120.805L233.736 120.233L233.727 119.955Z" fill="#3F3D56"/>
<path d="M232.892 117.738L216.292 118.32L216.302 118.597L232.902 118.015L232.892 117.738Z" fill="#3F3D56"/>
<path d="M231.783 115.786H215.615V116.064H231.783V115.786Z" fill="#3F3D56"/>
<path d="M230.946 113.838L215.233 114.021L215.236 114.299L230.949 114.116L230.946 113.838Z" fill="#3F3D56"/>
<path d="M230.107 111.896L214.882 112.4L214.891 112.678L230.117 112.174L230.107 111.896Z" fill="#3F3D56"/>
<path d="M229.553 109.963L214.518 110.226L214.523 110.504L229.558 110.24L229.553 109.963Z" fill="#3F3D56"/>
<path d="M228.437 108.039L214.041 108.488L214.05 108.766L228.446 108.317L228.437 108.039Z" fill="#3F3D56"/>
<path d="M227.883 106.346L213.615 106.485L213.617 106.763L227.886 106.624L227.883 106.346Z" fill="#3F3D56"/>
<path d="M212.572 100.629V81.7994C212.572 80.7135 213.458 79.8301 214.546 79.8301H223.683C224.772 79.8301 225.657 80.7135 225.657 81.7994V100.629C225.657 101.714 224.772 102.598 223.683 102.598H214.546C213.458 102.598 212.572 101.714 212.572 100.629Z" fill="#313874"/>
<path d="M191.289 128.141L175.116 127.114L174.985 127.105V114.623C174.985 113.044 176.273 111.76 177.856 111.76H193.831C195.414 111.76 196.702 113.044 196.702 114.623V128.141H196.563L191.289 128.141Z" fill="#313874"/>
<path d="M213.685 66.4773V52.0905C213.685 51.0047 214.571 50.1213 215.66 50.1213H218.671C219.76 50.1213 220.646 51.0047 220.646 52.0905V66.4773C220.646 67.563 219.76 68.4464 218.671 68.4464H215.66C214.571 68.4464 213.685 67.563 213.685 66.4773Z" fill="#3F3D56"/>
<path d="M216.748 129.53L215.913 117.313L213.407 105.652L212.711 102.459C211.281 101.489 209.355 102.568 209.441 104.291L209.509 105.652L212.015 117.313L212.85 129.53" fill="#313874"/>
<path d="M121.963 123.699L102.181 122.441L101.114 33.7312C101.088 31.578 101.949 29.4696 103.476 27.9468L124.669 6.81178C127.636 3.85304 132.305 3.63979 135.531 6.31572L158.531 25.3955C160.407 26.952 161.467 29.2406 161.438 31.6744L160.647 98.3889L170.644 112.234L170.665 112.264L172.359 126.903L121.963 123.699Z" fill="white"/>
<path d="M125.288 27.467V23.3535C125.288 22.2677 126.174 21.3843 127.263 21.3843H133.058C134.147 21.3843 135.032 22.2677 135.032 23.3535V27.467C135.032 28.5528 134.147 29.4362 133.058 29.4362H127.263C126.174 29.4362 125.288 28.5528 125.288 27.467Z" fill="#313874"/>
<path d="M113.037 59.3971V44.1774C113.037 43.0916 113.923 42.2083 115.012 42.2083H123.592C124.68 42.2083 125.566 43.0916 125.566 44.1774V59.3971C125.566 60.4829 124.68 61.3663 123.592 61.3663H115.012C113.923 61.3663 113.037 60.4829 113.037 59.3971Z" fill="#3F3D56"/>
<path d="M131.014 77.0184C130.59 77.3533 130.356 77.8549 130.372 78.3942L130.806 93.1047C130.832 93.9932 131.55 94.7139 132.441 94.7454C132.909 94.7641 133.345 94.5935 133.679 94.2719C134.013 93.9504 134.197 93.5182 134.197 93.055V78.4598C134.197 77.6947 133.68 77.0228 132.938 76.8257L132.504 76.7102C132.357 76.6711 132.209 76.6519 132.062 76.6519C131.686 76.6519 131.319 76.7777 131.014 77.0184Z" fill="#3F3D56"/>
<path d="M106.123 94.4716C105.735 94.0971 105.52 93.5939 105.52 93.0548V78.4596C105.52 77.5689 106.123 76.7867 106.986 76.557L107.42 76.4415C108.028 76.2805 108.661 76.4106 109.155 76.8005C109.649 77.1907 109.921 77.7745 109.903 78.4022L109.469 93.1126C109.438 94.147 108.602 94.9862 107.565 95.0228C107.541 95.0236 107.517 95.0239 107.493 95.0239C106.979 95.0239 106.495 94.8292 106.123 94.4716Z" fill="#3F3D56"/>
<path d="M114.43 92.993V77.7292C114.43 76.6516 115.276 75.787 116.356 75.7604L124.154 75.5709C124.171 75.5706 124.187 75.5703 124.203 75.5703C125.265 75.5703 126.145 76.4182 126.176 77.4824L126.625 92.9358C126.641 93.4724 126.443 93.98 126.068 94.365C125.693 94.75 125.19 94.9621 124.651 94.9621H116.404C115.315 94.9621 114.43 94.0787 114.43 92.993Z" fill="#3F3D56"/>
<path d="M160.521 103.423L166.633 114.259L167.335 126.445L172.201 126.753L170.531 112.315L160.508 98.4329C159.643 99.9857 159.648 101.875 160.521 103.423Z" fill="#313874"/>
<path d="M167.139 122.957L147.302 123.228L147.306 123.505L167.143 123.235L167.139 122.957Z" fill="#3F3D56"/>
<path d="M165.936 120.507L147.127 120.653L147.129 120.931L165.938 120.784L165.936 120.507Z" fill="#3F3D56"/>
<path d="M164.96 118.003L146.968 118.353L146.974 118.631L164.965 118.281L164.96 118.003Z" fill="#3F3D56"/>
<path d="M164.401 115.513L147.124 116.085L147.133 116.362L164.41 115.79L164.401 115.513Z" fill="#3F3D56"/>
<path d="M163.566 113.295L146.966 113.877L146.976 114.155L163.575 113.573L163.566 113.295Z" fill="#3F3D56"/>
<path d="M162.457 111.344H146.289V111.621H162.457V111.344Z" fill="#3F3D56"/>
<path d="M161.62 109.395L145.907 109.579L145.91 109.857L161.623 109.673L161.62 109.395Z" fill="#3F3D56"/>
<path d="M160.781 107.453L145.556 107.958L145.565 108.235L160.791 107.731L160.781 107.453Z" fill="#3F3D56"/>
<path d="M160.227 105.52L145.192 105.784L145.197 106.061L160.232 105.798L160.227 105.52Z" fill="#3F3D56"/>
<path d="M159.111 103.597L144.715 104.046L144.724 104.323L159.12 103.875L159.111 103.597Z" fill="#3F3D56"/>
<path d="M158.557 101.904L144.289 102.042L144.291 102.32L158.56 102.181L158.557 101.904Z" fill="#3F3D56"/>
<path d="M143.246 96.1861V77.357C143.246 76.2711 144.132 75.3877 145.22 75.3877H154.357C155.446 75.3877 156.331 76.2711 156.331 77.357V96.1861C156.331 97.2718 155.446 98.1552 154.357 98.1552H145.22C144.132 98.1552 143.246 97.2718 143.246 96.1861Z" fill="#313874"/>
<path d="M121.963 123.699L105.79 122.671L105.659 122.663V110.181C105.659 108.602 106.947 107.318 108.53 107.318H124.505C126.088 107.318 127.376 108.602 127.376 110.181V123.699H127.237L121.963 123.699Z" fill="#313874"/>
<path d="M144.359 62.0347V47.648C144.359 46.5622 145.245 45.6788 146.334 45.6788H149.345C150.434 45.6788 151.32 46.5622 151.32 47.648V62.0347C151.32 63.1205 150.434 64.0039 149.345 64.0039H146.334C145.245 64.0039 144.359 63.1205 144.359 62.0347Z" fill="#3F3D56"/>
<path d="M147.422 125.087L146.587 112.871L144.081 101.209L143.385 98.0164C141.955 97.0464 140.029 98.1254 140.115 99.8481L140.183 101.209L142.689 112.871L143.524 125.087" fill="#313874"/>
<path d="M52.6369 119.256L32.8548 117.999L31.7879 29.2887C31.7621 27.1355 32.6229 25.0271 34.1498 23.5044L55.3433 2.36929C58.3099 -0.589303 62.9797 -0.80256 66.2049 1.87323L89.2045 20.953C91.0808 22.5095 92.1404 24.7981 92.1116 27.2319L91.3214 93.9464L101.318 107.792L101.339 107.821L103.033 122.46L52.6369 119.256Z" fill="white"/>
<path d="M55.9619 23.0246V18.9111C55.9619 17.8253 56.8477 16.9419 57.9367 16.9419H63.732C64.8207 16.9419 65.7065 17.8253 65.7065 18.9111V23.0246C65.7065 24.1104 64.8207 24.9938 63.732 24.9938H57.9367C56.8477 24.9938 55.9619 24.1104 55.9619 23.0246Z" fill="#313874"/>
<path d="M43.7115 54.9546V39.7349C43.7115 38.6491 44.5974 37.7657 45.6863 37.7657H54.2659C55.3545 37.7657 56.2403 38.6491 56.2403 39.7349V54.9546C56.2403 56.0404 55.3545 56.9238 54.2659 56.9238H45.6863C44.5974 56.9238 43.7115 56.0404 43.7115 54.9546Z" fill="#3F3D56"/>
<path d="M63.1053 90.5805C62.0683 90.5439 61.232 89.7047 61.2013 88.6703L60.7676 73.9599C60.7491 73.3319 61.0216 72.7481 61.5153 72.3582C62.0091 71.9683 62.6412 71.8379 63.25 71.9992L63.6839 72.1148C64.5469 72.3444 65.1497 73.1267 65.1497 74.0174V88.6126C65.1497 89.1516 64.9354 89.6549 64.5466 90.0293C64.1747 90.3872 63.691 90.5816 63.1774 90.5816C63.1535 90.5816 63.1293 90.5813 63.1053 90.5805Z" fill="#3F3D56"/>
<path d="M37.696 72.2488L38.1298 72.1334C39.3167 71.8178 40.4735 72.7314 40.4373 73.9558L40.0035 88.6663C39.975 89.6307 39.2008 90.4075 38.2339 90.4416C37.1954 90.4783 36.3335 89.6487 36.3335 88.6124V74.0174C36.3335 73.1881 36.8925 72.4625 37.696 72.2488Z" fill="#3F3D56"/>
<path d="M45.1036 88.5506V73.2867C45.1036 72.2092 45.9498 71.3445 47.0303 71.318L54.8281 71.1284C55.9146 71.1111 56.8187 71.9595 56.8502 73.04L57.2994 88.4934C57.3149 89.03 57.1169 89.5375 56.7417 89.9226C56.3668 90.3076 55.8638 90.5196 55.3254 90.5196H47.0784C45.9895 90.5196 45.1036 89.6362 45.1036 88.5506Z" fill="#3F3D56"/>
<path d="M91.195 98.9808L97.307 109.817L98.0086 122.003L102.875 122.311L101.205 107.873L91.1818 93.9905C90.3167 95.5433 90.3217 97.4326 91.195 98.9808Z" fill="#313874"/>
<path d="M97.8131 118.515L77.9762 118.785L77.98 119.063L97.8169 118.793L97.8131 118.515Z" fill="#3F3D56"/>
<path d="M96.6098 116.064L77.8014 116.211L77.8036 116.489L96.612 116.342L96.6098 116.064Z" fill="#3F3D56"/>
<path d="M95.6337 113.56L77.6425 113.911L77.6479 114.189L95.6391 113.838L95.6337 113.56Z" fill="#3F3D56"/>
<path d="M95.0751 111.07L77.7977 111.642L77.807 111.92L95.0844 111.348L95.0751 111.07Z" fill="#3F3D56"/>
<path d="M94.2398 108.853L77.6399 109.435L77.6497 109.712L94.2495 109.13L94.2398 108.853Z" fill="#3F3D56"/>
<path d="M93.1307 106.901H76.9626V107.179H93.1307V106.901Z" fill="#3F3D56"/>
<path d="M92.2937 104.953L76.5809 105.137L76.5842 105.414L92.297 105.231L92.2937 104.953Z" fill="#3F3D56"/>
<path d="M91.4555 103.011L76.23 103.515L76.2392 103.793L91.4647 103.289L91.4555 103.011Z" fill="#3F3D56"/>
<path d="M90.901 101.078L75.8662 101.341L75.8711 101.619L90.9059 101.355L90.901 101.078Z" fill="#3F3D56"/>
<path d="M89.7852 99.1546L75.3893 99.6033L75.398 99.8809L89.7939 99.4323L89.7852 99.1546Z" fill="#3F3D56"/>
<path d="M89.2314 97.4611L74.9625 97.6001L74.9652 97.8777L89.2341 97.7388L89.2314 97.4611Z" fill="#3F3D56"/>
<path d="M73.9198 91.7438V72.9146C73.9198 71.8287 74.8056 70.9453 75.8946 70.9453H85.0309C86.1196 70.9453 87.0054 71.8287 87.0054 72.9146V91.7438C87.0054 92.8294 86.1196 93.7128 85.0309 93.7128H75.8946C74.8056 93.7128 73.9198 92.8294 73.9198 91.7438Z" fill="#313874"/>
<path d="M52.637 119.256L36.4637 118.229L36.3335 118.221V105.738C36.3335 104.16 37.6215 102.875 39.2044 102.875H55.1794C56.7624 102.875 58.0501 104.16 58.0501 105.738V119.257H57.9109L52.637 119.256Z" fill="#313874"/>
<path d="M75.0334 57.5923V43.2056C75.0334 42.1198 75.9193 41.2365 77.0082 41.2365H80.0194C81.1081 41.2365 81.9939 42.1198 81.9939 43.2056V57.5923C81.9939 58.6781 81.1081 59.5615 80.0194 59.5615H77.0082C75.9193 59.5615 75.0334 58.6781 75.0334 57.5923Z" fill="#3F3D56"/>
<path d="M78.0962 120.645L77.2609 108.428L74.7552 96.767L74.0591 93.574C72.6288 92.604 70.7027 93.683 70.7891 95.4058L70.8573 96.767L73.3631 108.428L74.1983 120.645" fill="#313874"/>
<path d="M27.1465 117.591L28.0937 100.02C28.0937 100.02 59.1637 93.5967 59.1637 75.0815C59.1637 56.5663 8.39079 54.2991 3.27561 62.801C3.22446 62.886 3.17362 62.971 3.12309 63.056C-3.19493 73.6819 0.37215 87.477 11.1233 93.6134C14.7996 95.7118 19.1828 97.5073 24.3047 98.5089L23.9439 117.174" fill="#313874"/>
<path d="M7.01367 116.102L6.97778 116.656L260.304 132.971L260.34 132.417L7.01367 116.102Z" fill="#313874"/>
</g>
<defs>
<clipPath id="clip0_597_2658">
<rect width="278" height="133" fill="white"/>
</clipPath>
</defs>
</svg>
