<svg width="278" height="231" viewBox="0 0 278 231" fill="none" xmlns="http://www.w3.org/2000/svg">
<g clip-path="url(#clip0_597_2729)">
<path d="M74.6505 217.066L79.3373 218.699L87.8711 201.411L80.954 199L74.6505 217.066Z" fill="#A0616A"/>
<path d="M80.7494 219.665L81.8575 216.49L80.5992 216.135L75.4802 214.684L74.2945 214.351L69.6961 224.676L69.4496 225.229L72.7773 226.389L73.0819 225.86L74.4632 223.455L74.8131 226.464L74.8889 227.125L83.7114 230.2C84.2375 230.38 84.8134 230.344 85.3138 230.102C85.8143 229.86 86.199 229.431 86.3844 228.907C87.3633 227.299 81.3376 220.984 80.7494 219.665Z" fill="#2F2E41"/>
<path d="M41.5055 220.726H46.4687L48.8301 201.594L41.5043 201.594L41.5055 220.726Z" fill="#A0616A"/>
<path d="M48.1204 221.173V217.81L46.8155 217.89L41.5039 218.204L40.2746 218.28L39.3348 229.542L39.2844 230.146H42.8087L42.922 229.546L43.4339 226.821L44.7555 229.546L45.045 230.146H54.3886C54.9447 230.142 55.4768 229.919 55.8696 229.526C56.2624 229.133 56.484 228.601 56.4865 228.045C56.8809 226.204 49.1106 222.225 48.1204 221.173Z" fill="#2F2E41"/>
<path d="M76.9274 100.669L84.7226 110.994C84.7226 110.994 80.4176 110.696 84.7226 112.566C89.0277 114.436 89.1497 113.775 89.0887 116.042C89.0276 118.308 84.6391 117.969 86.8334 120.29C89.0276 122.61 103.726 153.461 103.726 153.461C103.726 153.461 91.6818 198.126 90.1395 199.948C88.5971 201.771 86.8751 200.05 88.5971 201.771C90.3192 203.491 92.4717 201.34 90.3192 203.491C88.1666 205.643 85.2142 209.439 85.2142 209.439L76.5431 208.224C76.5431 208.224 67.0721 199.189 82.1397 184.132C82.1397 184.132 85.9328 169.067 84.2515 169.071C82.5702 169.074 82.5702 171.503 82.5702 166.632V161.76L62.6165 124.404C62.6165 124.404 49.8827 114.477 50.0827 109.939C50.2826 105.402 76.9274 100.669 76.9274 100.669Z" fill="#2F2E41"/>
<path d="M62.7671 110.994C62.7671 110.994 71.8076 156.598 70.5161 157.888C69.2246 159.179 69.2246 162.417 69.2246 162.417L48.5606 208.224L40.3811 208.654C40.188 195.549 40.1348 185.608 47.2691 176.388L50.7132 108.843L62.7671 110.994Z" fill="#2F2E41"/>
<path d="M74.5041 56.8616L64.6513 49.0882L59.4793 48.7877L51.8049 53.7009L49.9257 63.2816L45.4814 74.0702L52 103.185C52 103.185 52.6113 105.274 51.0092 105.525C49.4071 105.776 49.5992 108.856 49.5992 108.856C49.5992 108.856 49.9255 111.525 48.3698 111.76C46.8141 111.995 42.6658 111.995 46.2957 116.659C49.9257 121.323 78.6365 103.683 78.6365 103.683L82.8066 81.8167C82.8066 81.8167 90.8937 70.9618 82.1845 64.745L74.5041 56.8616Z" fill="white"/>
<path d="M31.4921 122.966C31.0579 122.425 30.7478 121.795 30.5837 121.121C30.4195 120.446 30.4052 119.745 30.5418 119.064C30.6785 118.384 30.9627 117.742 31.3744 117.184C31.7862 116.625 32.3155 116.163 32.9251 115.831L45.3183 74.2671L53.0677 78.166L39.5712 118.005C40.0615 119.065 40.1455 120.269 39.8074 121.387C39.4693 122.505 38.7325 123.46 37.7366 124.072C36.7408 124.683 35.555 124.908 34.4041 124.705C33.2532 124.501 32.2171 123.882 31.4921 122.966Z" fill="#A0616A"/>
<path d="M53.5846 53.3163C53.5846 53.3163 51.3693 52.1397 49.8541 57.231C48.641 61.3069 38.7979 85.5847 38.6724 91.4873C37.8623 91.6589 37.1324 92.0949 36.5976 92.7267C36.0628 93.3584 35.7535 94.15 35.7185 94.9768L47.8887 96.6066C50.0153 94.8141 50.5732 92.3931 49.7504 91.6746L52.3928 84.4624L63.4167 61.5156L55.201 54.1383L53.5846 53.3163Z" fill="white"/>
<path d="M118.613 109.304C118.771 108.628 118.778 107.926 118.634 107.247C118.49 106.569 118.199 105.93 117.782 105.375C117.364 104.821 116.83 104.365 116.217 104.039C115.604 103.714 114.927 103.526 114.234 103.49L85.8042 71.0422L79.7734 78.2336L109.182 108.322C109.199 109.49 109.644 110.611 110.432 111.473C111.221 112.335 112.299 112.878 113.461 112.999C114.624 113.12 115.791 112.811 116.74 112.13C117.69 111.449 118.356 110.443 118.613 109.304Z" fill="#A0616A"/>
<path d="M68.5543 56.0508C68.5543 56.0508 70.0426 54.0326 73.6119 57.9684C76.4694 61.1192 95.8502 78.7558 98.5176 84.0237C99.3223 83.8283 100.169 83.906 100.925 84.2445C101.68 84.5831 102.302 85.1632 102.691 85.8935L92.4229 92.6225C89.7298 91.9253 88.1791 89.9835 88.61 88.98L83.1066 83.619L63.2371 67.6928L67.4526 57.4905L68.5543 56.0508Z" fill="white"/>
<path d="M72.5342 37.8342C74.7717 32.0844 71.9213 25.6105 66.1677 23.3745C60.4141 21.1384 53.936 23.9869 51.6985 29.7368C49.461 35.4866 52.3113 41.9605 58.065 44.1966C63.8186 46.4326 70.2967 43.5841 72.5342 37.8342Z" fill="#A0616A"/>
<path d="M75.471 23.5461C74.7982 22.8212 73.9071 22.3355 72.9329 22.1629C71.9588 21.9903 70.9549 22.1403 70.0738 22.5899C70.2987 21.3345 70.5237 20.0791 70.7486 18.8237C68.8794 18.5378 67.0101 18.2518 65.1409 17.9659C62.321 17.5345 59.4151 17.106 56.6419 17.7748C54.6566 18.2825 52.8475 19.322 51.4098 20.7814C49.972 22.2407 48.9601 24.0646 48.483 26.0563C47.2752 25.2379 45.8621 24.7744 44.4039 24.7182C42.9458 24.6621 41.5011 25.0156 40.2339 25.7387C38.9667 26.4617 37.9277 27.5254 37.2349 28.8088C36.5421 30.0922 36.2233 31.5441 36.3146 32.9995C36.449 35.1416 37.4513 37.1183 38.0716 39.1732C40.4286 46.9821 36.525 56.1994 29.2747 59.9448C31.6098 61.715 34.0214 63.5237 36.8491 64.2941C39.677 65.0645 43.0573 64.5582 44.9196 62.2963C45.8724 61.1391 46.3322 59.6656 46.7708 58.2326C48.5439 52.4387 50.317 46.6447 52.0901 40.8508L54.9566 46.0228C55.872 47.3019 55.5444 49.092 54.8849 50.5198C54.2255 51.9476 53.2675 53.2695 52.9723 54.8142C52.6771 56.3588 53.3631 58.2729 54.8991 58.6142C56.9745 53.7352 59.0944 48.5361 58.2893 43.2959C57.9759 41.2565 57.2253 39.1649 57.815 37.1875C58.2706 35.6595 59.4769 34.4571 60.817 33.592C62.22 32.6877 63.7958 32.0848 65.4443 31.8215C69.0875 31.2424 73.6222 32.0201 75.7607 29.0162C76.315 28.1973 76.5866 27.2199 76.5343 26.2326C76.482 25.2453 76.1087 24.302 75.471 23.5461Z" fill="#2F2E41"/>
<path d="M68.3647 92.7322C73.5928 92.7322 77.831 88.4968 77.831 83.2721C77.831 78.0474 73.5928 73.812 68.3647 73.812C63.1366 73.812 58.8984 78.0474 58.8984 83.2721C58.8984 88.4968 63.1366 92.7322 68.3647 92.7322Z" fill="#313874"/>
<path d="M70.5745 78.5117C70.6249 78.7172 70.7002 78.9159 70.7987 79.1032C70.8818 79.3146 71.0219 79.4988 71.2033 79.6356C71.3848 79.7724 71.6005 79.8563 71.8268 79.8782C71.8648 79.8765 71.9025 79.8711 71.9394 79.8619C72.3441 79.7622 72.591 79.2723 72.595 78.6604C72.5951 78.4488 72.5693 78.238 72.5183 78.0326C72.4689 77.829 72.3945 77.6322 72.2968 77.4469C72.0091 76.9043 71.5605 76.582 71.1546 76.6821C70.617 76.8146 70.3579 77.634 70.5745 78.5117Z" fill="white"/>
<path d="M71.3042 79.1002C71.3808 79.4131 71.566 79.6888 71.8268 79.8781C71.8648 79.8764 71.9025 79.871 71.9394 79.8619C72.3441 79.7621 72.591 79.2722 72.5951 78.6603C72.5951 78.4487 72.5693 78.2379 72.5183 78.0325C72.4689 77.8289 72.3945 77.6322 72.2968 77.4468C71.9463 77.5353 71.6451 77.7589 71.4591 78.0687C71.273 78.3786 71.2174 78.7494 71.3042 79.1002Z" fill="#3F3D56"/>
<path d="M66.5482 79.504C66.7561 80.3467 67.3273 80.9371 67.8481 80.8664C67.8699 80.8636 67.8916 80.8596 67.913 80.8542C68.4494 80.722 68.7085 79.9026 68.4919 79.0249C68.4426 78.8217 68.3683 78.6254 68.2707 78.4404C67.9827 77.8966 67.5341 77.5743 67.1282 77.6744C66.5907 77.8069 66.3316 78.6263 66.5482 79.504Z" fill="white"/>
<path d="M67.3177 80.0828C67.395 80.399 67.5832 80.677 67.8481 80.8665C67.87 80.8637 67.8916 80.8596 67.913 80.8543C68.4494 80.7221 68.7085 79.9026 68.4919 79.025C68.4426 78.8218 68.3683 78.6254 68.2707 78.4404C67.9299 78.5374 67.64 78.7629 67.4622 79.0692C67.2845 79.3756 67.2326 79.739 67.3177 80.0828Z" fill="#3F3D56"/>
<path d="M74.523 82.277C75.0989 84.6106 74.1866 86.8422 72.4853 87.2616C70.784 87.6809 68.938 86.1291 68.3621 83.7955C70.4616 84.3222 72.5167 83.8479 74.523 82.277Z" fill="white"/>
<path opacity="0.2" d="M59.1746 85.5555C58.7092 83.6696 58.8358 81.6862 59.5372 79.8746C60.2386 78.063 61.4809 76.511 63.0953 75.4293C61.5888 77.1587 60.762 79.3759 60.7687 81.6688C60.7753 83.9616 61.615 86.1741 63.1314 87.8947C64.6479 89.6153 66.7381 90.727 69.0132 91.0231C71.2884 91.3192 73.5937 90.7796 75.5006 89.5045C74.3625 90.8104 72.8875 91.7789 71.2365 92.3046C69.5854 92.8302 67.8216 92.8928 66.1374 92.4854C64.4532 92.078 62.9132 91.2163 61.6855 89.9943C60.4577 88.7723 59.5892 87.2369 59.1746 85.5555Z" fill="black"/>
<path d="M274.227 224.018C274.04 224.026 273.854 223.977 273.696 223.877C273.537 223.777 273.413 223.63 273.341 223.457C273.269 223.284 273.251 223.093 273.291 222.91C273.331 222.727 273.426 222.561 273.564 222.433L273.627 222.184C273.619 222.164 273.61 222.145 273.602 222.125C273.413 221.679 273.097 221.299 272.693 221.033C272.289 220.766 271.815 220.625 271.331 220.627C270.846 220.629 270.374 220.773 269.972 221.043C269.569 221.312 269.256 221.695 269.071 222.141C268.329 223.925 267.386 225.712 267.154 227.598C267.051 228.432 267.094 229.277 267.281 230.096C265.54 226.301 264.637 222.177 264.631 218.003C264.63 216.955 264.689 215.908 264.805 214.867C264.902 214.014 265.035 213.167 265.206 212.325C266.139 207.761 268.142 203.483 271.051 199.842C272.459 199.074 273.597 197.894 274.313 196.46C274.573 195.944 274.756 195.394 274.857 194.826C274.699 194.847 274.259 192.429 274.378 192.281C274.157 191.945 273.761 191.779 273.519 191.451C272.317 189.822 270.661 190.107 269.796 192.32C267.949 193.252 267.931 194.797 269.065 196.283C269.786 197.228 269.885 198.507 270.517 199.519C270.452 199.603 270.385 199.683 270.319 199.767C269.13 201.295 268.093 202.937 267.223 204.668C267.435 202.729 267.182 200.767 266.487 198.944C265.782 197.246 264.462 195.815 263.298 194.346C262.991 193.952 262.573 193.657 262.098 193.5C261.623 193.342 261.112 193.329 260.629 193.462C260.147 193.595 259.715 193.868 259.387 194.247C259.06 194.625 258.852 195.092 258.79 195.588C258.788 195.61 258.786 195.631 258.783 195.653C258.956 195.75 259.125 195.854 259.291 195.963C259.499 196.102 259.66 196.3 259.753 196.532C259.846 196.764 259.867 197.019 259.813 197.262C259.759 197.506 259.632 197.728 259.45 197.899C259.267 198.07 259.037 198.182 258.79 198.22L258.765 198.224C258.827 198.846 258.935 199.463 259.09 200.068C257.598 205.835 260.82 207.936 265.42 208.03C265.521 208.082 265.62 208.134 265.722 208.183C264.848 210.657 264.3 213.234 264.092 215.848C263.974 217.391 263.981 218.941 264.113 220.482L264.105 220.427C263.772 218.713 262.857 217.167 261.514 216.049C259.521 214.412 256.704 213.81 254.554 212.494C254.325 212.347 254.059 212.269 253.788 212.268C253.516 212.268 253.25 212.345 253.021 212.49C252.791 212.636 252.609 212.844 252.494 213.09C252.379 213.336 252.337 213.61 252.372 213.879L252.381 213.936C252.702 214.067 253.014 214.217 253.316 214.386C253.489 214.484 253.658 214.587 253.823 214.696C254.031 214.835 254.192 215.033 254.285 215.265C254.379 215.497 254.399 215.752 254.345 215.996C254.291 216.239 254.165 216.461 253.982 216.632C253.8 216.803 253.57 216.915 253.323 216.953L253.298 216.957C253.279 216.959 253.264 216.962 253.246 216.965C253.793 218.272 254.562 219.475 255.518 220.521C256.451 225.555 260.459 226.033 264.745 224.567H264.748C265.218 226.609 265.9 228.598 266.781 230.499H274.045C274.071 230.418 274.095 230.335 274.118 230.255C273.446 230.297 272.771 230.257 272.108 230.135C272.647 229.474 273.186 228.808 273.725 228.147C273.737 228.135 273.748 228.122 273.759 228.108C274.032 227.77 274.308 227.434 274.581 227.096L274.582 227.096C274.596 226.059 274.477 225.024 274.227 224.018Z" fill="#9A9A9A"/>
<path d="M2.12309e-06 230.521C-0.000185745 230.584 0.0120963 230.646 0.0361374 230.704C0.0601785 230.763 0.0955078 230.815 0.14009 230.86C0.184672 230.905 0.237627 230.94 0.295912 230.964C0.354196 230.988 0.416665 231 0.479713 231H277.52C277.648 231 277.77 230.949 277.86 230.86C277.949 230.77 278 230.648 278 230.521C278 230.393 277.949 230.272 277.86 230.182C277.77 230.092 277.648 230.041 277.52 230.041H0.479688C0.416644 230.041 0.35418 230.053 0.295899 230.077C0.237618 230.101 0.184663 230.137 0.140084 230.181C0.0955047 230.226 0.0601777 230.279 0.0361374 230.337C0.0120971 230.395 -0.00018359 230.458 2.12309e-06 230.521Z" fill="black"/>
<path d="M196.29 223.924L190.443 223.923L187.661 201.383L196.291 201.384L196.29 223.924Z" fill="#FFB6B6"/>
<path d="M196.496 230.02L178.514 230.02V229.792C178.514 227.937 179.251 226.158 180.564 224.847C181.877 223.535 183.657 222.798 185.513 222.798H185.513L188.798 220.308L194.927 222.798L196.496 222.798L196.496 230.02Z" fill="#2F2E41"/>
<path d="M221.798 223.924L215.951 223.923L213.169 201.383L221.799 201.384L221.798 223.924Z" fill="#FFB6B6"/>
<path d="M222.004 230.02L204.022 230.02V229.792C204.022 227.937 204.76 226.158 206.072 224.847C207.385 223.535 209.165 222.798 211.021 222.798H211.022L214.306 220.308L220.435 222.798L222.005 222.798L222.004 230.02Z" fill="#2F2E41"/>
<path d="M181.73 101.107C181.73 101.107 176.104 118.375 177.142 120.648C178.181 122.921 179.953 121.151 178.181 122.921C176.409 124.692 174.862 122.81 176.522 125.816C178.181 128.823 180.695 153.577 181.8 154.775C182.906 155.973 184.426 156.006 183.075 157.17C181.725 158.334 179.953 155.973 181.725 158.334C183.496 160.695 188.198 215.158 188.198 215.158H197.382C197.382 215.158 199.67 212.523 198.375 210.808C197.08 209.093 198.489 208.432 198.375 207.287C198.261 206.142 198.692 203.673 198.772 202.547C198.852 201.42 200.404 174.584 196.675 159.081L203.475 129.563L211.712 165.24C211.712 165.24 207.923 195.165 211.712 204.785C211.712 204.785 208.657 207.327 210.012 208.8C211.367 210.273 212.548 209.093 211.367 210.273C210.186 211.454 213.139 215.585 213.139 215.585L223.179 214.995L228.862 159.081C228.862 159.081 229.82 153.25 228.862 152.251C227.904 151.252 227.904 154.793 227.904 151.252V146.53C227.904 146.53 227.349 117.488 227.275 115.778C227.201 114.068 220.114 101.673 220.114 101.673L181.73 101.107Z" fill="#2F2E41"/>
<path d="M181.814 41.4631V75.5141C182.914 78.8112 183.481 82.2624 183.495 85.7379C183.459 91.5265 182.185 98.1973 182.189 101.114C182.172 101.501 182.214 101.888 182.314 102.262C187.953 118.597 217.794 103.752 220.507 102.363C220.636 102.298 220.704 102.262 220.704 102.262L220.116 83.9654L220.216 78.7045L220.914 42.6152L220.289 42.1157L214.815 37.753L214.279 37.326L212.634 39.7229L197.974 38.7158L192.379 37.1689L190.634 37.8779L182.765 41.0764L181.814 41.4631Z" fill="#313874"/>
<path d="M173.133 109.974L175.061 99.3334L181.297 99.5856L178.859 110.763C179.188 111.351 179.346 112.019 179.316 112.691C179.286 113.364 179.069 114.015 178.69 114.571C178.31 115.128 177.782 115.567 177.166 115.84C176.55 116.113 175.87 116.209 175.203 116.117C174.535 116.025 173.906 115.749 173.387 115.319C172.868 114.89 172.48 114.324 172.265 113.686C172.05 113.048 172.017 112.362 172.17 111.706C172.324 111.051 172.657 110.451 173.133 109.974Z" fill="#FFB6B6"/>
<path d="M182.771 41.3905C185.976 42.22 187.806 46.3714 188.931 49.4825C190.381 53.4796 188.03 78.1222 185.171 81.7167C182.954 84.5045 183.48 83.9687 184.212 86.2776C184.944 88.5865 186.635 86.3345 185.113 89.769C183.591 93.2036 182.295 92.5839 183.309 94.0482C184.323 95.5125 185.506 95.3439 184.209 97.5397C182.913 99.7355 183.025 100.524 182.744 101.368C182.462 102.213 182.122 108.294 182.122 108.294C182.122 108.294 175.53 107.223 172.092 108.517C172.092 108.517 174.46 102.549 173.503 101.479C172.545 100.409 171.305 100.183 172.32 98.8319C173.335 97.4807 175.363 97.5938 173.222 96.6923C171.081 95.7908 172.887 83.0651 172.887 83.0651C170.484 74.6889 172.159 62.1603 174.591 48.8596C174.951 46.8926 175.946 45.0975 177.423 43.7487C178.9 42.3999 180.779 41.5716 182.771 41.3905Z" fill="#313874"/>
<path d="M224.362 109.267L224.828 98.4638L231.04 97.8688L230.141 109.273C230.547 109.811 230.794 110.451 230.856 111.122C230.918 111.792 230.791 112.467 230.49 113.069C230.189 113.672 229.726 114.179 229.153 114.533C228.58 114.887 227.919 115.074 227.245 115.073C226.571 115.072 225.911 114.884 225.339 114.529C224.766 114.174 224.304 113.666 224.004 113.063C223.705 112.459 223.58 111.785 223.643 111.114C223.706 110.444 223.955 109.804 224.362 109.267Z" fill="#FFB6B6"/>
<path d="M217.867 41.5637L218.041 41.5842C219.661 41.7751 221.209 42.3576 222.553 43.2813C223.896 44.205 224.994 45.4419 225.751 46.8851C227.729 50.649 233.987 76.1415 232.455 79.6399C231.026 82.9025 231.085 82.1002 232.124 84.2887C233.162 86.4771 234.532 84.0168 233.49 87.6259C232.447 91.235 231.079 90.7965 232.283 92.1099C233.486 93.4234 234.635 93.096 233.649 95.4471C232.662 97.7983 232.88 98.5642 232.716 99.4392C232.551 100.314 233.039 106.385 233.039 106.385C233.039 106.385 226.363 106.217 223.132 107.965C223.132 107.965 224.669 101.731 223.575 100.8C222.481 99.87 221.222 99.8145 222.044 98.3383C222.866 96.8621 224.891 96.6993 222.648 96.0962C220.404 95.4931 220.467 82.6402 220.467 82.6402L217.867 41.5637Z" fill="#313874"/>
<path d="M201.86 27.7951C202.122 27.8555 202.384 27.9079 202.646 27.9481C203.446 28.0795 204.259 28.1214 205.068 28.073C207.177 27.9598 209.214 27.2651 210.952 26.0658C212.69 24.8666 214.062 23.2097 214.915 21.2788C215.768 19.348 216.069 17.2188 215.786 15.1272C215.502 13.0357 214.644 11.0636 213.307 9.42961C211.97 7.79564 210.206 6.56369 208.211 5.87037C206.216 5.17705 204.068 5.04946 202.005 5.50175C199.942 5.95404 198.045 6.96854 196.523 8.43273C195.002 9.89692 193.916 11.7536 193.387 13.7968C193.363 13.8894 193.338 13.9781 193.318 14.0707C192.63 17.0226 193.144 20.1265 194.746 22.7002C196.347 25.2738 198.906 27.1064 201.86 27.7951Z" fill="#FFB6B6"/>
<path d="M212.413 26.4466C214.004 25.2027 214.158 22.8318 215.515 21.3372C217.785 18.8384 218.851 16.15 217.662 13.1891C216.611 10.5703 216.834 7.35113 214.57 5.66543C215.682 5.26311 215.944 4.42761 214.962 4.41219C214.301 4.40178 211.834 5.66566 213.021 4.09121C214.208 2.51676 211.961 3.13822 212.11 2.49375C212.258 1.84927 213.211 1.49232 213.631 2.00319C212.29 0.431914 209.359 0.766907 208.407 2.60042C207.07 0.597272 205.65 -0.781081 203.603 0.490119C201.593 1.73862 201.619 3.28194 199.458 2.91104C198.442 2.73668 198.346 4.65528 197.651 5.41711C196.957 6.17894 195.943 6.76855 194.929 6.57722C193.916 6.38588 193.142 5.12415 193.709 4.26402L191.321 9.70793L190.359 8.52829C188.83 9.52418 189.332 12.1229 190.871 13.1031C192.411 14.0834 195.348 11.8177 196.184 13.4394C197.5 15.9959 200.589 14.705 202.711 12.8983C205.283 10.7074 208.388 17.369 207.149 20.5113C208.435 19.2496 210.813 20.2967 211.479 21.97C212.145 23.6433 211.657 25.5285 211.163 27.2604L212.413 26.4466Z" fill="#2F2E41"/>
<path d="M190.634 37.8778L191.033 38.3854L192.105 39.747L196.073 51.4612L214.815 37.753L214.279 37.326L211.425 31.2634L196.765 30.2563L192.379 37.1689L190.634 37.8778Z" fill="#3F3D56"/>
<path d="M210.585 67.7564C209.641 77.8929 202.885 85.5529 195.495 84.8655C188.105 84.1781 182.879 75.4037 183.823 65.2672C191.49 70.293 200.371 71.2523 210.585 67.7564Z" fill="white"/>
<path d="M193.126 55.7009C193.088 56.3035 192.977 56.8993 192.795 57.4749C192.306 58.9829 191.358 60.0451 190.297 60.1686C190.19 60.183 190.081 60.1867 189.973 60.1796C188.786 60.1029 187.846 58.8511 187.526 57.1345C187.42 56.5402 187.386 55.935 187.426 55.3325C187.462 54.7358 187.572 54.1458 187.753 53.576C188.288 51.9074 189.386 50.7766 190.576 50.8535C192.153 50.9554 193.293 53.1268 193.126 55.7009Z" fill="white"/>
<path d="M191.373 57.7208C191.316 58.6383 190.934 59.5057 190.297 60.1685C190.19 60.183 190.081 60.1867 189.973 60.1796C188.786 60.1029 187.846 58.8511 187.526 57.1345C187.42 56.5402 187.386 55.935 187.426 55.3325C187.462 54.7357 187.572 54.1458 187.753 53.5759C188.782 53.6482 189.741 54.1249 190.419 54.9016C191.098 55.6784 191.441 56.692 191.373 57.7208Z" fill="#3F3D56"/>
<path d="M204.935 56.4638C204.775 58.9352 203.468 60.8809 201.97 60.9441C201.907 60.9472 201.844 60.9467 201.781 60.9426C200.208 60.8409 199.068 58.6695 199.235 56.0955C199.271 55.4999 199.38 54.911 199.561 54.3424C200.097 52.6704 201.194 51.5396 202.385 51.6165C203.961 51.7184 205.102 53.8898 204.935 56.4638Z" fill="white"/>
<path d="M203.065 58.4762C203.007 59.4032 202.618 60.2788 201.97 60.944C201.907 60.9472 201.844 60.9467 201.781 60.9425C200.208 60.8409 199.068 58.6695 199.235 56.0954C199.271 55.4999 199.38 54.911 199.561 54.3424C200.568 54.4435 201.495 54.9309 202.149 55.7021C202.802 56.4732 203.131 57.4678 203.065 58.4762Z" fill="#3F3D56"/>
<path d="M105.607 33.0043C108.684 33.0043 111.179 30.5111 111.179 27.4355C111.179 24.3599 108.684 21.8667 105.607 21.8667C102.529 21.8667 100.034 24.3599 100.034 27.4355C100.034 30.5111 102.529 33.0043 105.607 33.0043Z" fill="#9A9A9A"/>
<path d="M106.313 25.1138C106.307 25.2383 106.317 25.3629 106.341 25.4851C106.353 25.6183 106.402 25.7456 106.481 25.8529C106.561 25.9603 106.669 26.0435 106.793 26.0934C106.815 26.0988 106.837 26.102 106.859 26.1029C107.104 26.1138 107.325 25.8781 107.429 25.5332C107.465 25.4137 107.485 25.2904 107.49 25.1659C107.496 25.0428 107.487 24.9193 107.463 24.7984C107.39 24.4442 107.191 24.1878 106.945 24.1769C106.619 24.1625 106.337 24.5822 106.313 25.1138Z" fill="white"/>
<path d="M106.627 25.5674C106.619 25.7569 106.677 25.9433 106.793 26.0935C106.815 26.0988 106.837 26.102 106.859 26.103C107.105 26.1139 107.325 25.8782 107.429 25.5333C107.465 25.4138 107.485 25.2905 107.49 25.166C107.496 25.0428 107.487 24.9194 107.463 24.7985C107.25 24.7902 107.043 24.8665 106.886 25.0106C106.73 25.1547 106.637 25.3549 106.627 25.5674Z" fill="#9A9A9A"/>
<path d="M103.874 25.0059C103.852 25.5163 104.076 25.9446 104.382 25.9911C104.395 25.9932 104.408 25.9945 104.421 25.995C104.746 26.0094 105.028 25.5896 105.052 25.058C105.058 24.9351 105.048 24.8119 105.024 24.6912C104.952 24.3363 104.752 24.0798 104.506 24.069C104.18 24.0545 103.898 24.4743 103.874 25.0059Z" fill="white"/>
<path d="M104.213 25.4605C104.204 25.6519 104.264 25.8401 104.382 25.9911C104.395 25.9931 104.408 25.9944 104.421 25.995C104.746 26.0094 105.028 25.5896 105.052 25.058C105.058 24.9351 105.048 24.8119 105.024 24.6912C104.815 24.6894 104.614 24.7686 104.463 24.9121C104.311 25.0556 104.222 25.2522 104.213 25.4605Z" fill="#9A9A9A"/>
<path d="M107.917 27.8958C107.854 29.3092 106.968 30.4181 105.938 30.3725C104.907 30.3269 104.123 29.1441 104.185 27.7306C104.749 28.0551 105.382 28.2395 106.031 28.2683C106.681 28.297 107.327 28.1692 107.917 27.8958Z" fill="white"/>
<path d="M135.033 90.6087C138.11 90.6087 140.605 88.1154 140.605 85.0399C140.605 81.9643 138.11 79.4711 135.033 79.4711C131.955 79.4711 129.46 81.9643 129.46 85.0399C129.46 88.1154 131.955 90.6087 135.033 90.6087Z" fill="#9A9A9A"/>
<path d="M135.739 82.7182C135.733 82.8427 135.742 82.9673 135.767 83.0895C135.779 83.2226 135.827 83.35 135.907 83.4573C135.987 83.5647 136.095 83.6479 136.219 83.6978C136.24 83.7032 136.263 83.7064 136.285 83.7073C136.53 83.7182 136.751 83.4825 136.855 83.1376C136.89 83.0181 136.911 82.8948 136.916 82.7703C136.922 82.6471 136.913 82.5237 136.888 82.4028C136.816 82.0486 136.616 81.7921 136.37 81.7812C136.045 81.7668 135.762 82.1866 135.739 82.7182Z" fill="white"/>
<path d="M136.053 83.1718C136.044 83.3612 136.103 83.5476 136.219 83.6979C136.241 83.7032 136.263 83.7064 136.285 83.7074C136.53 83.7182 136.751 83.4826 136.855 83.1377C136.89 83.0182 136.911 82.8948 136.916 82.7704C136.922 82.6472 136.913 82.5237 136.888 82.4028C136.676 82.3946 136.468 82.4709 136.312 82.615C136.155 82.7591 136.062 82.9593 136.053 83.1718Z" fill="#9A9A9A"/>
<path d="M133.3 82.6103C133.277 83.1207 133.502 83.549 133.808 83.5955C133.82 83.5976 133.833 83.5989 133.846 83.5994C134.171 83.6138 134.454 83.194 134.477 82.6624C134.483 82.5395 134.474 82.4162 134.45 82.2956C134.377 81.9407 134.177 81.6842 133.932 81.6733C133.606 81.6589 133.323 82.0787 133.3 82.6103Z" fill="white"/>
<path d="M133.638 83.0649C133.629 83.2563 133.689 83.4445 133.808 83.5955C133.82 83.5975 133.833 83.5988 133.846 83.5994C134.171 83.6138 134.454 83.194 134.477 82.6624C134.483 82.5394 134.474 82.4162 134.45 82.2956C134.241 82.2938 134.04 82.373 133.888 82.5165C133.737 82.66 133.647 82.8566 133.638 83.0649Z" fill="#9A9A9A"/>
<path d="M137.343 85.5001C137.28 86.9136 136.394 88.0225 135.363 87.9769C134.333 87.9313 133.548 86.7484 133.611 85.335C134.174 85.6595 134.807 85.8439 135.457 85.8726C136.106 85.9014 136.753 85.7736 137.343 85.5001Z" fill="white"/>
<path d="M242.255 25.3505C245.332 25.3505 247.827 22.8573 247.827 19.7817C247.827 16.7061 245.332 14.2129 242.255 14.2129C239.177 14.2129 236.682 16.7061 236.682 19.7817C236.682 22.8573 239.177 25.3505 242.255 25.3505Z" fill="#9A9A9A"/>
<path d="M242.961 17.4602C242.955 17.5846 242.965 17.7093 242.989 17.8314C243.001 17.9646 243.05 18.0919 243.129 18.1993C243.209 18.3066 243.317 18.3898 243.441 18.4397C243.463 18.4451 243.485 18.4483 243.507 18.4493C243.752 18.4601 243.973 18.2244 244.077 17.8796C244.113 17.7601 244.133 17.6367 244.138 17.5123C244.144 17.3891 244.135 17.2656 244.111 17.1447C244.038 16.7906 243.839 16.5341 243.593 16.5232C243.267 16.5088 242.985 16.9285 242.961 17.4602Z" fill="white"/>
<path d="M243.275 17.9136C243.266 18.103 243.325 18.2895 243.441 18.4397C243.463 18.445 243.485 18.4482 243.507 18.4492C243.753 18.46 243.973 18.2244 244.077 17.8795C244.113 17.76 244.133 17.6367 244.138 17.5122C244.144 17.389 244.135 17.2656 244.111 17.1446C243.898 17.1364 243.691 17.2127 243.534 17.3568C243.378 17.5009 243.285 17.7011 243.275 17.9136Z" fill="#9A9A9A"/>
<path d="M240.522 17.3522C240.5 17.8626 240.724 18.2909 241.03 18.3374C241.043 18.3395 241.056 18.3408 241.069 18.3413C241.393 18.3557 241.676 17.9359 241.7 17.4044C241.706 17.2814 241.696 17.1582 241.672 17.0375C241.6 16.6826 241.4 16.4262 241.154 16.4153C240.828 16.4008 240.546 16.8206 240.522 17.3522Z" fill="white"/>
<path d="M240.861 17.8068C240.852 17.9982 240.912 18.1865 241.03 18.3374C241.043 18.3395 241.056 18.3408 241.069 18.3413C241.393 18.3557 241.676 17.9359 241.7 17.4043C241.706 17.2814 241.696 17.1582 241.672 17.0375C241.463 17.0357 241.262 17.1149 241.111 17.2584C240.959 17.4019 240.87 17.5985 240.861 17.8068Z" fill="#9A9A9A"/>
<path d="M244.565 20.2421C244.502 21.6555 243.616 22.7644 242.586 22.7188C241.555 22.6732 240.771 21.4904 240.833 20.0769C241.397 20.4014 242.03 20.5858 242.679 20.6146C243.329 20.6433 243.975 20.5156 244.565 20.2421Z" fill="white"/>
<path d="M7.65569 173.188C10.7333 173.188 13.2281 170.695 13.2281 167.62C13.2281 164.544 10.7333 162.051 7.65569 162.051C4.57812 162.051 2.08325 164.544 2.08325 167.62C2.08325 170.695 4.57812 173.188 7.65569 173.188Z" fill="#9A9A9A"/>
<path d="M8.36185 165.298C8.35612 165.422 8.36561 165.547 8.39011 165.669C8.40194 165.802 8.45039 165.93 8.53013 166.037C8.60986 166.144 8.71776 166.228 8.84189 166.278C8.86362 166.283 8.88583 166.286 8.90819 166.287C9.15331 166.298 9.37416 166.062 9.47816 165.717C9.51337 165.598 9.53385 165.474 9.53916 165.35C9.54512 165.227 9.53581 165.103 9.51146 164.982C9.43918 164.628 9.2394 164.372 8.99355 164.361C8.66793 164.347 8.38541 164.766 8.36185 165.298Z" fill="white"/>
<path d="M8.67615 165.751C8.66738 165.941 8.72614 166.127 8.84199 166.278C8.86371 166.283 8.88592 166.286 8.90828 166.287C9.15341 166.298 9.37425 166.062 9.47825 165.717C9.51346 165.598 9.53394 165.475 9.53925 165.35C9.54521 165.227 9.5359 165.103 9.51155 164.983C9.29887 164.974 9.09158 165.051 8.93503 165.195C8.77848 165.339 8.68541 165.539 8.67615 165.751Z" fill="#9A9A9A"/>
<path d="M5.92308 165.19C5.90046 165.7 6.12488 166.129 6.43074 166.175C6.44356 166.177 6.45648 166.179 6.46944 166.179C6.79434 166.193 7.07686 165.774 7.10042 165.242C7.10636 165.119 7.09705 164.996 7.07269 164.875C7.00044 164.52 6.80066 164.264 6.5548 164.253C6.22918 164.239 5.94664 164.658 5.92308 165.19Z" fill="white"/>
<path d="M6.26148 165.645C6.25261 165.836 6.31268 166.024 6.43078 166.175C6.44359 166.177 6.45652 166.179 6.46948 166.179C6.79437 166.193 7.0769 165.774 7.10046 165.242C7.1064 165.119 7.09709 164.996 7.07273 164.875C6.86412 164.873 6.66295 164.953 6.51161 165.096C6.36028 165.24 6.2706 165.436 6.26148 165.645Z" fill="#9A9A9A"/>
<path d="M9.96584 168.08C9.9032 169.493 9.01704 170.602 7.98655 170.556C6.95606 170.511 6.17145 169.328 6.2341 167.915C6.79729 168.239 7.43032 168.423 8.07979 168.452C8.72926 168.481 9.37614 168.353 9.96584 168.08Z" fill="white"/>
<path d="M8.86505 84.969C11.9426 84.969 14.4375 82.4758 14.4375 79.4002C14.4375 76.3247 11.9426 73.8314 8.86505 73.8314C5.78747 73.8314 3.2926 76.3247 3.2926 79.4002C3.2926 82.4758 5.78747 84.969 8.86505 84.969Z" fill="#9A9A9A"/>
<path d="M9.5712 77.0787C9.56547 77.2031 9.57496 77.3278 9.59947 77.4499C9.61129 77.5831 9.65974 77.7104 9.73948 77.8178C9.81922 77.9252 9.92711 78.0084 10.0512 78.0583C10.073 78.0636 10.0952 78.0668 10.1175 78.0678C10.3627 78.0786 10.5835 77.843 10.6875 77.4981C10.7227 77.3786 10.7432 77.2553 10.7485 77.1308C10.7545 77.0076 10.7452 76.8841 10.7208 76.7632C10.6485 76.4091 10.4488 76.1526 10.2029 76.1417C9.87728 76.1273 9.59476 76.5471 9.5712 77.0787Z" fill="white"/>
<path d="M9.88538 77.5321C9.87661 77.7216 9.93537 77.908 10.0512 78.0582C10.0729 78.0636 10.0951 78.0668 10.1175 78.0677C10.3626 78.0786 10.5835 77.8429 10.6875 77.498C10.7227 77.3785 10.7432 77.2552 10.7485 77.1307C10.7544 77.0076 10.7451 76.8841 10.7208 76.7632C10.5081 76.755 10.3008 76.8312 10.1443 76.9753C9.98771 77.1194 9.89463 77.3196 9.88538 77.5321Z" fill="#9A9A9A"/>
<path d="M7.13231 76.9708C7.10969 77.4812 7.33411 77.9095 7.63997 77.956C7.65278 77.958 7.66571 77.9593 7.67867 77.9599C8.00356 77.9743 8.28609 77.5545 8.30965 77.0229C8.31559 76.8999 8.30628 76.7767 8.28192 76.6561C8.20967 76.3012 8.00989 76.0447 7.76403 76.0338C7.43841 76.0194 7.15587 76.4392 7.13231 76.9708Z" fill="white"/>
<path d="M7.47071 77.4253C7.46184 77.6168 7.52191 77.805 7.64001 77.956C7.65282 77.958 7.66575 77.9593 7.67871 77.9599C8.0036 77.9742 8.28613 77.5545 8.30969 77.0229C8.31563 76.8999 8.30632 76.7767 8.28196 76.656C8.07335 76.6542 7.87217 76.7334 7.72084 76.8769C7.56951 77.0204 7.47983 77.2171 7.47071 77.4253Z" fill="#9A9A9A"/>
<path d="M11.1752 79.8605C11.1125 81.274 10.2264 82.3828 9.1959 82.3372C8.16541 82.2916 7.38081 81.1088 7.44345 79.6953C8.00664 80.0198 8.63967 80.2042 9.28914 80.233C9.93862 80.2617 10.5855 80.134 11.1752 79.8605Z" fill="white"/>
</g>
<defs>
<clipPath id="clip0_597_2729">
<rect width="278" height="231" fill="white"/>
</clipPath>
</defs>
</svg>
