<svg width="278" height="209" viewBox="0 0 278 209" fill="none" xmlns="http://www.w3.org/2000/svg">
<g clip-path="url(#clip0_597_2410)">
<path d="M0 126.828C0 127.079 0.201386 127.28 0.452167 127.28H277.548C277.799 127.28 278 127.079 278 126.828C278 126.578 277.799 126.377 277.548 126.377H0.452167C0.201386 126.377 0 126.578 0 126.828Z" fill="#3F3D56"/>
<path d="M177.432 30.9755L178.886 49.556L199.957 40.7637L188.071 21.8657L177.432 30.9755Z" fill="#A0616A"/>
<path d="M176.801 36.6362C185.475 36.6362 192.508 29.6111 192.508 20.9452C192.508 12.2793 185.475 5.25415 176.801 5.25415C168.126 5.25415 161.094 12.2793 161.094 20.9452C161.094 29.6111 168.126 36.6362 176.801 36.6362Z" fill="#A0616A"/>
<path d="M147.416 167.242L150.075 191.075L131.458 188.499L137.537 166.483L147.416 167.242Z" fill="#A0616A"/>
<path d="M219.987 170.659L222.646 194.491L204.029 191.915L210.108 169.899L219.987 170.659Z" fill="#A0616A"/>
<path d="M175.722 98.7294C175.468 98.7294 155.149 99.7486 141.725 100.423C135.371 100.743 130.535 106.237 131.028 112.573L135.827 174.265L149.506 174.644L149.839 124.92L176.862 126.438L175.722 98.7294Z" fill="#2F2E41"/>
<path d="M235.375 98.3498C235.375 98.3498 238.794 124.54 236.135 127.197C233.475 129.854 150.075 125.11 150.075 125.11C150.075 125.11 168.372 98.7153 171.667 97.9632C174.962 97.2111 227.396 94.5541 227.396 94.5541L235.375 98.3498Z" fill="#2F2E41"/>
<path d="M127.332 65.3752C124.156 60.9377 123.874 55.7036 126.701 53.6849C129.528 51.6661 134.394 53.6271 137.57 58.0666C138.864 59.8226 139.717 61.8625 140.059 64.0156L153.279 82.9872L145.756 88.1904L132.163 69.6542C130.234 68.6338 128.577 67.1665 127.332 65.3752Z" fill="#A0616A"/>
<path d="M176.672 42.7423L196.05 34.7712L232.525 90.9481C232.525 90.9481 207.068 96.6417 198.329 97.7805C189.591 98.9192 179.712 94.3643 179.712 94.3643L176.672 42.7423Z" fill="#313874"/>
<path d="M200.229 52.2316L193.2 30.3269L202.319 37.2384C202.319 37.2384 228.156 54.3192 228.156 61.5311C228.156 68.743 236.135 90.7583 236.135 90.7583C236.135 90.7583 245.064 98.16 242.024 104.992C238.984 111.825 246.013 110.876 246.773 115.81C247.533 120.745 235.945 127.387 235.945 127.387C235.945 127.387 233.095 99.4885 223.976 99.4885C214.857 99.4885 200.229 52.2316 200.229 52.2316Z" fill="#3F3D56"/>
<path d="M178.034 42.1821L168.503 45.9686C168.503 45.9686 170.023 72.5388 171.543 74.8162C173.063 77.0937 178.382 89.24 178.382 89.24V93.1986C178.382 93.1986 167.743 96.4519 168.123 98.3498C168.503 100.248 193.2 105.562 193.2 105.562C193.2 105.562 188.261 90.3787 185.221 85.4443C182.181 80.5098 178.034 42.1821 178.034 42.1821Z" fill="#3F3D56"/>
<path d="M171.923 45.9687C171.923 45.9687 160.904 44.4504 159.004 57.3559C157.105 70.2614 158.312 71.9695 158.312 71.9695L155.205 79.3711L144.946 67.9839L135.067 74.4367C135.067 74.4367 152.925 103.284 160.144 102.525C167.363 101.766 178.002 80.8894 178.002 80.8894L171.923 45.9687Z" fill="#3F3D56"/>
<path d="M226.955 102.54L221.317 182.236L206.688 181.666C206.688 181.666 203.459 106.321 203.459 105.182C203.459 104.043 204.979 97.5907 214.477 97.2111C223.976 96.8315 226.955 102.54 226.955 102.54Z" fill="#2F2E41"/>
<path d="M205.739 183.754C205.739 183.754 213.338 181.476 214.478 182.995C215.617 184.513 222.077 185.272 222.077 185.272L223.976 203.871C223.976 203.871 218.657 207.667 217.897 208.426C217.137 209.185 197 209.944 196.62 205.39C196.24 200.835 201.939 195.141 201.939 195.141L205.739 183.754Z" fill="#2F2E41"/>
<path d="M149.885 178.44C149.885 178.44 152.165 176.542 152.925 181.856C153.685 187.17 156.345 195.9 152.545 197.039C148.746 198.178 110.75 198.557 110.75 195.141V191.725L114.17 189.068L121.011 187.979C121.011 187.979 134.307 175.783 135.827 175.783C137.347 175.783 142.286 180.717 142.286 180.717L149.885 178.44Z" fill="#2F2E41"/>
<path d="M192.25 29.4572C192.25 29.4572 184.651 20.3474 181.611 21.1066C178.572 21.8657 180.472 23.0044 180.472 23.0044L172.873 14.6538C172.873 14.6538 166.793 12.3764 161.094 19.5883C161.094 19.5883 157.674 13.5151 161.094 10.0989C164.514 6.68277 165.653 7.06234 166.413 5.16447C167.173 3.26661 172.493 1.74831 172.493 1.74831C172.493 1.74831 172.187 -0.983423 173.86 0.382442C175.532 1.74831 179.709 1.74831 179.709 1.74831C179.709 1.74831 179.733 0.230016 181.432 1.74831C183.131 3.26661 185.031 2.50746 185.031 2.50746C185.031 2.50746 185.031 5.13459 186.361 5.14953C187.691 5.16447 189.97 3.26661 190.35 4.7849C190.73 6.30319 193.39 7.06234 193.77 11.6172C194.15 16.1721 192.25 29.4572 192.25 29.4572Z" fill="#2F2E41"/>
<path d="M130.322 67.8863L86.9173 97.8069C85.4195 98.8394 83.3601 98.4621 82.3266 96.9658L70.1066 79.2743C69.0731 77.778 69.4509 75.7207 70.9487 74.6882L114.353 44.7676C115.851 43.7351 117.91 44.1124 118.944 45.6087L131.164 63.3002C132.197 64.7965 131.819 66.8538 130.322 67.8863Z" fill="white"/>
<path d="M118.864 45.6638L131.084 63.3551C132.089 64.8108 131.724 66.8021 130.267 67.8066L108.965 82.4908C103.347 80.9572 98.2209 77.5127 94.655 72.3501C92.3192 68.9684 90.9113 65.2247 90.3743 61.415L114.408 44.8473C115.865 43.8429 117.859 44.2081 118.864 45.6638Z" fill="#E6E6E6"/>
<path d="M85.0486 98.7685C83.8787 98.7685 82.7273 98.2139 82.0138 97.1816L69.7937 79.4899C69.2364 78.6826 69.0272 77.7058 69.2049 76.7388C69.3823 75.7717 69.9251 74.9324 70.7332 74.3757L114.137 44.455C115.808 43.304 118.104 43.7251 119.257 45.3928L131.477 63.0845C132.034 63.8918 132.243 64.8685 132.066 65.8356C131.888 66.8024 131.345 67.642 130.538 68.1987L87.1332 98.1194C86.4964 98.5579 85.7688 98.7685 85.0486 98.7685ZM116.223 44.5647C115.652 44.5647 115.074 44.7319 114.569 45.0799L71.1648 75.0006C70.5236 75.4421 70.0932 76.1082 69.9522 76.8759C69.8112 77.6432 69.977 78.4187 70.4193 79.0584L82.6394 96.7501C83.5537 98.0735 85.3759 98.4082 86.7013 97.4945L130.106 67.5738C130.747 67.1323 131.177 66.4662 131.318 65.6985C131.459 64.9312 131.293 64.1557 130.851 63.516L118.631 45.8243C118.065 45.0051 117.151 44.5647 116.223 44.5647Z" fill="#3F3D56"/>
<path d="M85.3626 89.935C84.2626 90.6934 83.9852 92.2043 84.7442 93.3033C85.5033 94.4022 87.0158 94.6793 88.1158 93.921L92.5846 90.8405C93.6846 90.0822 93.962 88.5712 93.203 87.4723C92.4439 86.3733 90.9314 86.0962 89.8314 86.8545L85.3626 89.935Z" fill="#313874"/>
<path d="M88.3916 65.2529C86.656 66.4493 86.2184 68.8334 87.416 70.5673C88.6137 72.3012 90.9999 72.7383 92.7356 71.5419L99.687 66.7499C101.423 65.5535 101.86 63.1696 100.663 61.4357C99.465 59.7018 97.0787 59.2645 95.343 60.461L88.3916 65.2529Z" fill="#313874"/>
<path d="M129.282 70.5281H76.5475C74.7277 70.5281 73.2472 69.0492 73.2472 67.2312V45.7366C73.2472 43.9187 74.7277 42.4397 76.5475 42.4397H129.282C131.102 42.4397 132.583 43.9187 132.583 45.7366V67.2312C132.583 69.0492 131.102 70.5281 129.282 70.5281Z" fill="white"/>
<path d="M132.486 45.7366V67.2311C132.486 68.9997 131.053 70.4312 129.282 70.4312H103.402C99.6497 65.9816 97.3887 60.238 97.3887 53.9656C97.3887 49.8569 98.3582 45.9768 100.082 42.5365H129.282C131.053 42.5365 132.486 43.9681 132.486 45.7366Z" fill="#E6E6E6"/>
<path d="M129.282 70.9077H76.5476C74.5183 70.9077 72.8672 69.2585 72.8672 67.2313V45.7364C72.8672 43.7092 74.5183 42.0601 76.5476 42.0601H129.282C131.312 42.0601 132.963 43.7092 132.963 45.7364V67.2313C132.963 69.2585 131.312 70.9077 129.282 70.9077ZM76.5476 42.8192C74.9373 42.8192 73.6271 44.1277 73.6271 45.7364V67.2313C73.6271 68.84 74.9373 70.1485 76.5476 70.1485H129.282C130.893 70.1485 132.203 68.84 132.203 67.2313V45.7364C132.203 44.1277 130.893 42.8192 129.282 42.8192H76.5476Z" fill="#3F3D56"/>
<path d="M79.7431 63.167C78.4065 63.167 77.3192 64.2532 77.3192 65.5884C77.3192 66.9236 78.4065 68.0098 79.7431 68.0098H85.1724C86.509 68.0098 87.5963 66.9236 87.5963 65.5884C87.5963 64.2532 86.509 63.167 85.1724 63.167H79.7431Z" fill="#313874"/>
<path d="M96.2682 44.5704C94.1595 44.5704 92.444 46.2843 92.444 48.391C92.444 50.4976 94.1595 52.2113 96.2682 52.2113H104.714C106.823 52.2113 108.538 50.4976 108.538 48.391C108.538 46.2843 106.823 44.5704 104.714 44.5704H96.2682Z" fill="#313874"/>
<path d="M173.357 144.925H120.622C118.802 144.925 117.322 143.446 117.322 141.628V120.133C117.322 118.315 118.802 116.836 120.622 116.836H173.357C175.177 116.836 176.657 118.315 176.657 120.133V141.628C176.657 143.446 175.177 144.925 173.357 144.925Z" fill="white"/>
<path d="M176.56 120.133V141.628C176.56 143.396 175.127 144.828 173.357 144.828H147.476C143.724 140.378 141.463 134.634 141.463 128.362C141.463 124.253 142.433 120.373 144.157 116.933H173.357C175.127 116.933 176.56 118.365 176.56 120.133Z" fill="#E6E6E6"/>
<path d="M173.357 145.304H120.622C118.593 145.304 116.942 143.655 116.942 141.628V120.133C116.942 118.106 118.593 116.457 120.622 116.457H173.357C175.386 116.457 177.037 118.106 177.037 120.133V141.628C177.037 143.655 175.386 145.304 173.357 145.304ZM120.622 117.216C119.012 117.216 117.702 118.524 117.702 120.133V141.628C117.702 143.237 119.012 144.545 120.622 144.545H173.357C174.967 144.545 176.277 143.237 176.277 141.628V120.133C176.277 118.524 174.967 117.216 173.357 117.216H120.622Z" fill="#3F3D56"/>
<path d="M123.818 137.563C122.481 137.563 121.394 138.65 121.394 139.985C121.394 141.32 122.481 142.406 123.818 142.406H129.247C130.584 142.406 131.671 141.32 131.671 139.985C131.671 138.65 130.584 137.563 129.247 137.563H123.818Z" fill="#313874"/>
<path d="M140.343 118.967C138.234 118.967 136.518 120.681 136.518 122.787C136.518 124.894 138.234 126.608 140.343 126.608H148.788C150.897 126.608 152.613 124.894 152.613 122.787C152.613 120.681 150.897 118.967 148.788 118.967H140.343Z" fill="#313874"/>
<path d="M176.934 125.645C172.091 128.165 166.864 127.71 165.259 124.631C163.655 121.551 166.28 117.014 171.126 114.494C173.047 113.461 175.189 112.903 177.371 112.866L198.027 102.45L202.129 110.621L181.852 121.467C180.57 123.232 178.884 124.665 176.934 125.645Z" fill="#A0616A"/>
<path d="M200.419 36.8589C200.419 36.8589 221.697 35.7202 226.256 47.1074C230.815 58.4946 234.615 95.6928 234.615 95.6928L188.261 120.887L180.282 108.598L211.438 84.3056L200.419 36.8589Z" fill="#3F3D56"/>
</g>
<defs>
<clipPath id="clip0_597_2410">
<rect width="278" height="209" fill="white"/>
</clipPath>
</defs>
</svg>
